<?xml version="1.0" standalone="no"?>
<!DOCTYPE svg PUBLIC "-//W3C//DTD SVG 20010904//EN"
 "http://www.w3.org/TR/2001/REC-SVG-20010904/DTD/svg10.dtd">
<svg version="1.0" xmlns="http://www.w3.org/2000/svg"
 width="500.000000pt" height="500.000000pt" viewBox="0 0 500.000000 500.000000"
 preserveAspectRatio="xMidYMid meet">
<metadata>
Created by potrace 1.11, written by Peter Selinger 2001-2013
</metadata>
<g transform="translate(0.000000,500.000000) scale(0.100000,-0.100000)"
fill="#000000" stroke="none">
<path d="M0 2500 l0 -2500 2500 0 2500 0 0 2500 0 2500 -2500 0 -2500 0 0
-2500z m1335 1640 c10 -17 -61 -156 -105 -204 -29 -31 -75 -62 -148 -100 -99
-50 -111 -60 -167 -131 -108 -138 -254 -360 -243 -370 2 -3 24 10 49 28 50 35
208 112 252 123 40 9 36 -23 -11 -83 -88 -110 -227 -203 -327 -218 l-44 -7
-30 -83 c-40 -110 -58 -184 -76 -302 -25 -163 -21 -171 31 -72 52 101 158 232
182 227 25 -5 18 -72 -18 -170 -37 -102 -78 -165 -146 -227 -63 -58 -65 -71
-35 -216 20 -93 88 -315 97 -315 3 0 2 33 -1 73 -12 126 41 302 90 302 16 0
22 -11 32 -55 34 -154 24 -300 -28 -407 l-30 -62 21 -41 c45 -88 127 -220 202
-328 44 -61 81 -112 82 -112 1 0 -8 33 -22 73 -13 39 -27 107 -30 150 -5 78
-5 79 19 75 60 -8 131 -169 151 -341 l11 -98 64 -59 c60 -55 243 -187 243
-176 0 3 -13 25 -29 49 -31 44 -81 180 -81 216 0 43 24 34 87 -33 69 -75 128
-182 139 -252 6 -42 11 -48 46 -64 22 -10 76 -28 119 -41 75 -23 100 -39 61
-39 -80 0 -321 98 -439 178 l-59 40 -54 -14 c-30 -8 -73 -14 -95 -14 -88 0
-212 47 -287 110 -29 25 -31 29 -18 45 13 15 27 17 115 12 58 -3 127 -14 163
-25 l63 -20 -88 91 c-49 51 -124 139 -166 196 l-78 105 -82 0 c-98 1 -171 30
-236 95 -45 45 -95 136 -87 157 4 9 21 14 51 14 48 0 131 -36 212 -91 23 -16
44 -29 46 -29 3 0 -23 55 -57 123 -34 67 -80 170 -101 229 l-39 107 -55 20
c-115 42 -229 163 -271 288 -32 92 -13 105 77 53 52 -30 131 -115 185 -199 33
-52 33 -51 12 54 -18 90 -22 345 -6 433 8 45 7 55 -8 65 -31 21 -70 88 -90
155 -38 123 -21 263 38 315 54 49 77 -4 87 -195 4 -71 10 -128 14 -128 3 0 19
42 35 93 17 50 57 148 91 217 l61 125 -23 34 c-83 122 -85 361 -4 505 31 55
55 76 70 61 15 -15 31 -130 31 -215 -1 -41 -7 -127 -14 -190 -8 -63 -13 -116
-11 -118 1 -1 20 26 43 60 22 35 72 101 111 148 66 80 97 123 185 261 40 63
93 104 169 130 59 21 93 24 102 9z m2471 -21 c67 -32 116 -81 164 -165 24 -44
79 -122 122 -174 43 -51 104 -130 134 -175 56 -79 56 -80 50 -40 -16 114 -27
288 -21 350 16 174 42 189 105 63 75 -154 77 -304 5 -458 l-37 -78 30 -54 c39
-69 115 -247 136 -322 10 -32 19 -57 20 -55 2 2 9 71 15 152 13 156 23 197 51
197 21 0 64 -47 78 -85 41 -115 6 -293 -77 -388 l-32 -36 12 -103 c13 -115 7
-283 -15 -393 -8 -38 -13 -71 -12 -72 1 -2 25 30 53 70 68 97 120 149 177 176
48 24 76 22 76 -3 0 -34 -35 -115 -75 -176 -58 -87 -127 -142 -235 -184 -33
-12 -38 -21 -74 -120 -21 -58 -67 -162 -101 -231 -35 -69 -58 -122 -52 -118 7
5 37 24 67 44 91 60 136 79 185 79 60 0 67 -18 30 -87 -36 -69 -111 -136 -183
-163 -45 -18 -72 -21 -129 -18 l-72 5 -27 -41 c-48 -73 -157 -209 -227 -283
l-68 -71 63 20 c65 21 258 32 274 15 22 -21 -66 -94 -153 -128 -74 -28 -158
-35 -243 -20 l-67 12 -63 -42 c-90 -59 -235 -126 -326 -149 -139 -36 -167 -21
-39 20 148 48 150 50 168 125 20 80 70 166 142 243 43 46 56 55 66 44 25 -24
-19 -167 -82 -261 l-23 -33 45 27 c78 50 153 107 217 168 l62 60 0 61 c1 154
92 366 157 366 28 0 8 -169 -31 -275 -6 -16 -4 -15 13 5 45 53 192 279 237
364 l47 89 -17 31 c-49 85 -69 201 -56 327 17 173 41 206 87 123 39 -71 56
-159 50 -259 -5 -87 -5 -89 9 -55 29 66 85 275 98 363 l14 89 -72 71 c-81 81
-125 162 -157 286 -20 78 -19 101 4 101 30 0 133 -129 188 -236 39 -74 39 -75
39 -37 0 99 -48 318 -97 439 l-24 61 -55 12 c-87 17 -171 67 -254 151 -85 85
-110 124 -92 142 16 16 162 -48 260 -112 l73 -49 -31 57 c-52 92 -154 242
-224 330 -61 75 -73 85 -159 126 -127 61 -175 106 -226 211 -23 47 -39 90 -35
96 9 15 87 2 140 -22z m24 -1284 c0 -63 -4 -105 -10 -105 -5 0 -10 11 -10 24
0 42 -18 75 -52 96 -28 17 -51 20 -150 20 l-118 0 0 -165 0 -165 96 0 c96 0
96 0 130 34 22 22 34 44 34 61 0 15 4 24 10 20 6 -4 10 -63 10 -146 0 -86 -4
-139 -10 -139 -5 0 -10 11 -10 25 0 14 -13 39 -29 57 l-29 33 -99 0 -98 0 0
-160 0 -160 74 -3 c92 -4 164 11 213 43 40 27 83 86 94 129 3 14 11 26 16 26
6 0 8 -6 5 -14 -3 -8 -15 -64 -28 -125 l-22 -111 -321 1 c-295 0 -318 1 -285
15 20 8 41 26 48 40 7 17 11 131 11 358 0 322 -1 334 -21 360 -12 15 -30 26
-45 26 -13 0 -24 4 -24 10 0 6 107 11 288 13 158 1 297 3 310 5 22 2 22 0 22
-103z m-2350 85 c0 -5 -10 -10 -22 -10 -12 0 -32 -10 -45 -22 l-23 -21 0 -347
c0 -380 -1 -374 61 -396 29 -11 4 -13 -161 -13 l-195 -1 41 19 c23 10 44 26
47 36 4 9 7 170 7 358 0 336 0 341 -22 364 -12 13 -32 23 -45 23 -13 0 -23 5
-23 10 0 6 70 10 190 10 120 0 190 -4 190 -10z m612 -13 c66 -21 107 -53 129
-101 40 -88 9 -193 -67 -232 l-41 -20 41 -13 c96 -30 146 -99 146 -204 0 -86
-35 -144 -112 -181 -80 -39 -140 -46 -392 -46 l-231 0 41 19 c26 12 43 27 47
42 4 13 7 173 7 355 0 320 -1 332 -21 358 -12 15 -30 26 -45 26 -13 0 -24 5
-24 11 0 18 461 6 522 -14z m820 0 c66 -21 107 -53 129 -101 40 -88 9 -193
-67 -232 l-41 -20 41 -13 c96 -30 146 -99 146 -204 0 -86 -35 -144 -112 -181
-80 -39 -140 -46 -392 -46 l-231 0 41 19 c26 12 43 27 47 42 4 13 7 173 7 355
0 320 -1 332 -21 358 -12 15 -30 26 -45 26 -13 0 -24 5 -24 11 0 18 461 6 522
-14z"/>
<path d="M1852 2518 l3 -353 53 2 c66 3 116 26 145 67 19 26 22 44 22 116 0
73 -3 90 -23 118 -27 38 -67 60 -125 71 l-42 8 45 12 c25 7 55 22 68 34 29 27
46 90 38 145 -12 91 -56 132 -141 132 l-45 0 2 -352z"/>
<path d="M2672 2518 l3 -353 53 2 c66 3 116 26 145 67 19 26 22 44 22 116 0
73 -3 90 -23 118 -27 38 -67 60 -125 71 l-42 8 45 12 c25 7 55 22 68 34 29 27
46 90 38 145 -12 91 -56 132 -141 132 l-45 0 2 -352z"/>
</g>
</svg>
